PathFileType	4	(X/Y/Z)	HSS_squat5.trc
DataRate	CameraRate	NumFrames	NumMarkers	Units	OrigDataRate	OrigDataStartFrame	OrigNumFrames
120.0	120.0	7	44	mm	120.0	491	980
Frame#	Time		R.Shoulder		Offset		L.Shoulder		R.Elbow		R.Wrist.Radial		R.Wrist		R.Hand		L.Elbow		L.Wrist.Radial		L.Wrist		L.Hand		R.Hip		V.Sacral		L.PSIS		L.Hip		R.Thigh.Upper		R.Thigh.Front		R.Thigh.Rear		X.Shell.Lower.Thigh.Right		R.Knee.Lateral		R.Shank.Upper		R.Shank.Front		R.Shank.Rear		X.Shell.Lower.Shank.Right		R.Ankle.Lateral		R.Heel		R.Toe		L.Thigh.Upper		L.Thigh.Front		L.Thigh.Rear		X.Shell.Lower.Thigh.Left		L.Knee.Lateral		L.Shank.Upper		L.Shank.Front		L.Shank.Rear		X.Shell.Lower.Shank.Left		L.Ankle.Lateral		L.Heel		L.Toe		R.Troc		L.Troc		R.PSIS		L.ASIS		R.ASIS
			X1	Y1	Z1	X2	Y2	Z2	X3	Y3	Z3	X4	Y4	Z4	X5	Y5	Z5	X6	Y6	Z6	X7	Y7	Z7	X8	Y8	Z8	X9	Y9	Z9	X10	Y10	Z10	X11	Y11	Z11	X12	Y12	Z12	X13	Y13	Z13	X14	Y14	Z14	X15	Y15	Z15	X16	Y16	Z16	X17	Y17	Z17	X18	Y18	Z18	X19	Y19	Z19	X20	Y20	Z20	X21	Y21	Z21	X22	Y22	Z22	X23	Y23	Z23	X24	Y24	Z24	X25	Y25	Z25	X26	Y26	Z26	X27	Y27	Z27	X28	Y28	Z28	X29	Y29	Z29	X30	Y30	Z30	X31	Y31	Z31	X32	Y32	Z32	X33	Y33	Z33	X34	Y34	Z34	X35	Y35	Z35	X36	Y36	Z36	X37	Y37	Z37	X38	Y38	Z38	X39	Y39	Z39	X40	Y40	Z40	X41	Y41	Z41	X42	Y42	Z42	X43	Y43	Z43	X44	Y44	Z44

491	4.08333	128.98727	1322.15051	-174.20695	-154.81712	1251.54224	-54.50887	-185.15823	1329.43579	-197.20978	305.82785	1164.34875	-431.23312	91.36351	1227.92773	-545.27655	118.01825	1258.91064	-610.10358	33.02735	1266.58997	-635.02789	-349.11981	1191.30896	-475.37299	-98.76217	1214.22339	-576.67761	-135.27414	1260.30457	-620.28821	-46.46087	1250.25256	-629.22180	117.77398	887.64368	-30.38006	-38.59005	910.33679	90.90236	-77.15887	916.50653	78.18969	-177.92957	877.37561	-47.21082	205.44791	653.86835	-155.63133	197.74123	648.29626	-208.07912	219.12737	611.11249	-163.31679	209.75031	604.64612	-208.30562	200.87057	482.23978	-231.07091	251.10428	350.74094	-201.99625	229.75281	300.19711	-216.09354	237.62869	325.29321	-160.80019	230.68890	279.54666	-171.46411	190.20160	70.93616	-88.73941	139.75696	33.72468	-42.26032	203.39290	34.60678	-234.64053	-236.69200	656.20203	-188.26263	-220.71523	633.02771	-238.56259	-255.54240	611.25781	-190.93674	-247.74484	603.59210	-234.73024	-229.24994	469.04254	-256.72357	-279.86935	297.21609	-181.20744	-265.14178	264.29623	-199.30472	-267.79166	270.88864	-138.60777	-272.46402	233.96237	-149.88760	-239.45071	73.94916	-104.18477	-193.86334	36.43863	-43.23743	-242.34647	32.52856	-241.20866	161.68394	809.22809	-14.87794	-219.34029	802.62787	-31.37015	4.81822	917.84064	85.34566	-132.77319	827.33014	-90.26503	88.45007	834.50238	-72.25517
492	4.09167	128.90030	1318.16052	-175.40787	-155.03596	1247.89392	-55.62949	-185.09285	1325.43335	-198.44595	305.94711	1160.15063	-432.12811	91.72132	1223.89380	-546.34460	118.44098	1254.84094	-611.16205	33.36003	1262.59033	-636.17474	-348.95071	1187.17212	-476.57806	-98.21812	1210.31433	-577.71802	-134.90831	1256.23584	-621.36005	-46.41438	1246.27295	-630.23602	117.31135	884.24377	-29.62284	-39.01890	907.28101	91.76936	-77.55790	913.61133	79.11931	-178.32880	874.19983	-46.38072	205.26808	652.66840	-155.45178	197.65189	647.56049	-207.80603	218.99797	609.93848	-163.23007	209.72498	603.91028	-208.52875	200.97348	481.45667	-232.25854	251.14571	350.21591	-203.03519	229.77065	299.65311	-217.07266	237.62148	324.97354	-161.76324	230.60754	279.20935	-172.04312	190.09889	70.96077	-88.83363	139.61656	33.75254	-42.29489	203.40968	34.61037	-234.70331	-236.85271	654.90729	-188.18179	-220.95479	632.13824	-238.63760	-255.84372	609.97302	-191.05875	-247.85052	602.74548	-234.86069	-229.43520	468.20966	-258.04062	-279.95319	296.92029	-182.00049	-265.22742	263.98407	-199.84799	-267.90634	270.63379	-139.39653	-272.53128	233.75089	-150.60651	-239.37057	73.91794	-104.26866	-193.79857	36.45582	-43.26877	-242.29755	32.50763	-241.25018	161.18840	807.15906	-13.68921	-219.98456	800.21210	-30.49206	4.43399	914.83105	86.05717	-133.24646	823.97650	-89.39030	87.95238	831.18964	-71.62956
493	4.10000	128.86092	1314.08093	-176.58987	-155.08961	1244.37256	-56.78920	-185.05782	1321.53467	-199.88031	306.10080	1155.95129	-432.95752	91.97479	1219.73254	-547.31592	118.78709	1250.76636	-612.05359	33.73756	1258.53320	-637.18671	-348.71597	1183.12524	-477.86209	-96.91852	1206.65210	-578.67621	-134.53304	1252.24622	-622.61469	-45.92058	1242.25159	-631.24982	116.93751	880.82709	-29.02415	-39.49098	904.34766	92.61577	-78.02174	910.56372	79.84293	-178.62744	871.00134	-45.69012	205.10609	651.53070	-155.20770	197.51883	646.70380	-207.55525	218.94922	608.85919	-163.45656	209.64595	603.23804	-208.59213	201.08694	480.85880	-233.30078	251.20795	349.84747	-203.96808	229.83920	299.20633	-217.74858	237.62494	324.65067	-162.46669	230.61127	278.94000	-172.73672	190.10275	71.02197	-88.68623	139.51149	33.79296	-42.36445	203.42860	34.63920	-234.69620	-237.14168	653.60632	-187.81071	-221.20166	631.22913	-238.68524	-256.03436	608.67896	-191.23749	-248.07997	601.73798	-235.11603	-229.64378	467.55215	-259.33780	-280.11023	296.49719	-182.90608	-265.32867	263.51022	-200.58621	-268.05374	270.39304	-140.22958	-272.59451	233.45793	-151.34863	-239.26279	73.90013	-104.32475	-193.74153	36.50212	-43.30045	-242.26610	32.45190	-241.29872	160.59320	805.06732	-12.70129	-220.54709	797.81805	-29.42471	4.01954	911.76691	86.84619	-133.71785	820.71826	-88.53139	87.46362	827.90088	-70.56293
494	4.10833	128.66434	1310.16992	-177.30838	-155.33904	1240.69788	-57.86619	-184.93057	1317.45142	-201.11398	306.19482	1151.75012	-433.86188	92.37659	1215.82849	-548.31067	119.21691	1246.64441	-613.14075	34.22050	1254.54419	-638.21960	-348.48309	1178.90918	-479.16769	-97.68074	1202.30481	-580.02814	-134.33449	1248.17151	-623.53308	-45.82588	1238.16882	-632.49677	116.50748	877.52594	-28.28703	-39.82382	901.23450	93.23552	-78.47503	907.56763	80.60239	-179.07289	867.86993	-45.00810	204.87752	650.23383	-154.77011	197.39357	645.99646	-207.32524	218.84451	607.70001	-163.40152	209.62471	602.47418	-208.67813	201.27577	480.00735	-234.29428	251.31714	349.44629	-204.72624	230.10393	298.71912	-218.31442	237.70544	324.36792	-163.27824	230.64592	278.62659	-173.44463	190.03299	71.06914	-88.74734	139.39827	33.82433	-42.42436	203.43716	34.65395	-234.69617	-237.40923	652.26294	-187.64528	-221.49130	630.38837	-238.51004	-256.35422	607.36487	-191.34044	-248.54900	600.86749	-235.23959	-229.94646	466.68152	-260.40454	-280.35922	296.21692	-183.73836	-265.48639	263.06888	-201.47046	-268.20450	270.12958	-140.89841	-272.73132	233.17685	-151.97160	-239.19836	73.87537	-104.36766	-193.68079	36.56840	-43.32999	-242.26009	32.42308	-241.34709	160.31885	803.02948	-11.92486	-221.12785	795.40912	-28.32314	3.53477	908.77905	87.45545	-134.17357	817.38947	-87.58079	87.05074	824.66748	-69.94906
495	4.11667	128.64433	1305.97791	-178.46474	-155.50172	1237.08435	-59.02882	-184.86555	1313.54797	-202.43428	306.24203	1147.44019	-434.73157	92.57652	1211.61060	-549.40918	119.41740	1242.52161	-614.19373	34.50298	1250.36951	-639.27600	-348.30225	1174.79224	-480.47992	-97.37819	1198.22925	-581.39355	-133.97939	1244.08386	-624.88593	-45.36187	1234.07446	-633.51007	115.92274	874.21979	-27.59423	-40.42714	898.22156	93.96376	-78.90377	904.56818	81.21986	-179.55132	864.61169	-44.28174	204.71104	649.09039	-154.36504	197.27811	645.13397	-206.97110	218.80716	606.66089	-163.45883	209.62476	601.73260	-208.71692	201.38586	479.43655	-235.15582	251.42343	349.03418	-205.55702	230.15842	298.28598	-219.01448	237.71172	324.15610	-164.04979	230.72542	278.35367	-174.01614	189.89946	71.08524	-89.01306	139.30864	33.84918	-42.46478	203.47598	34.66887	-234.68225	-237.61372	650.95740	-187.25499	-221.84325	629.45386	-238.50615	-256.68768	606.11426	-191.34489	-248.87616	599.97699	-235.44739	-230.15582	466.01184	-261.68222	-280.57797	295.84735	-184.60167	-265.60544	262.64447	-202.27356	-268.30658	269.83475	-141.78258	-272.86295	232.92934	-152.65320	-239.12498	73.84915	-104.41511	-193.61378	36.65876	-43.39923	-242.21576	32.37195	-241.40004	159.90617	800.77673	-10.90389	-221.68652	793.00623	-27.13149	3.08270	905.77838	88.18230	-134.68134	814.01184	-86.63725	86.35931	821.43060	-68.48403
496	4.12500	128.53267	1301.82495	-179.68521	-155.67944	1233.40613	-60.20349	-184.91077	1309.51611	-203.87086	306.37845	1143.08484	-435.65094	92.83426	1207.48767	-550.47571	119.75533	1238.25513	-615.29535	34.90164	1246.22607	-640.40564	-348.09076	1170.55737	-481.76617	-97.85247	1194.15381	-582.34210	-133.76575	1239.87598	-626.10010	-45.29089	1229.91772	-634.79498	115.37537	870.85510	-26.90620	-40.91702	895.17834	94.68557	-79.38922	901.54126	81.99362	-180.06325	861.41296	-43.66616	204.56709	647.82037	-154.14754	197.12456	644.45300	-206.69405	218.71625	605.59601	-163.34995	209.57443	600.93005	-208.71515	201.63930	478.62766	-236.02988	251.65033	348.61432	-206.38692	230.27887	297.85748	-219.81163	237.79488	323.84357	-164.89191	230.78491	278.02481	-174.60857	189.81856	71.10665	-89.03790	139.17677	33.86054	-42.49668	203.49463	34.73864	-234.63181	-237.84210	649.53949	-186.97098	-222.05898	628.53882	-238.26720	-256.81927	604.85590	-191.46703	-249.05582	599.04047	-235.49214	-230.32918	465.19272	-262.73340	-280.72031	295.49033	-185.53824	-265.79468	262.28290	-203.04132	-268.45724	269.58774	-142.62167	-272.98242	232.68102	-153.37421	-239.01691	73.83273	-104.47134	-193.50266	36.76944	-43.43548	-242.23537	32.37825	-241.47055	159.24696	798.33325	-9.62213	-222.26933	790.50494	-26.05918	2.45949	902.76672	89.00671	-135.10567	810.74542	-85.69939	85.83176	818.12927	-67.64297
497	4.13333	128.56393	1297.67334	-180.86041	-155.85722	1229.80908	-61.48105	-184.64423	1305.50842	-205.23630	306.49786	1138.74646	-436.54977	93.14095	1203.35254	-551.43140	120.06116	1234.01428	-616.30151	35.20863	1242.05640	-641.37048	-347.94839	1166.32190	-483.14197	-96.49808	1190.09119	-583.46967	-133.46834	1235.70801	-627.35437	-44.83126	1225.75244	-635.91162	114.84766	867.58618	-26.23034	-41.40467	892.08759	95.40884	-79.83501	898.55066	82.59669	-180.45949	858.19794	-42.98852	203.44156	646.80035	-154.13455	197.06114	643.64569	-206.24037	218.54648	604.47760	-163.22937	209.59160	600.23505	-208.64865	201.83099	477.95001	-236.90829	251.78027	348.21213	-207.10466	230.48471	297.44571	-220.25719	237.85071	323.63760	-165.36777	230.82170	277.72479	-175.00870	189.72629	71.14447	-89.02647	139.05121	33.85468	-42.53401	203.50391	34.79608	-234.57922	-238.15886	648.32031	-186.41982	-222.29723	627.77838	-238.05624	-257.17929	603.63245	-191.26227	-249.25517	598.18848	-235.46466	-230.51886	464.54428	-263.82690	-280.85645	295.14709	-186.29288	-265.93735	261.88730	-203.95323	-268.51593	269.33749	-143.30441	-273.05457	232.39536	-154.11639	-238.89461	73.85439	-104.60371	-193.29588	36.96555	-43.52925	-242.21837	32.32619	-241.54578	158.74083	796.00604	-8.64610	-223.29866	788.10583	-25.08631	2.08556	899.76544	89.66183	-135.66217	807.47699	-84.76122	85.52139	814.59918	-66.85316
